<svg xmlns="http://www.w3.org/2000/svg" width="99" height="99" viewBox="0 0 99 99" fill="none"><g id="iconeValidacao"><circle id="circulo1" cx="49.5" cy="49.5" r="48.5" fill="url(#paint0_linear_2024_225)" stroke="url(#paint1_linear_2024_225)" stroke-width="2"></circle><g id="interno1"><path id="Vector" d="M70.7742 36.103H69.7268C70.6626 35.0593 71.2761 33.7668 71.4931 32.3819C71.7102 30.997 71.5215 29.5788 70.95 28.2988C70.3784 27.0188 69.4484 25.9317 68.2723 25.1688C67.0962 24.406 65.7244 24 64.3226 24C62.9208 24 61.5489 24.406 60.3728 25.1688C59.1967 25.9317 58.2667 27.0188 57.6952 28.2988C57.1236 29.5788 56.935 30.997 57.1521 32.3819C57.3691 33.7668 57.9826 35.0593 58.9183 36.103H49V28.0385C49 27.8246 48.915 27.6195 48.7638 27.4683C48.6126 27.317 48.4074 27.2321 48.1935 27.2321H44.9677C44.7539 27.2321 44.5487 27.317 44.3975 27.4683C44.2463 27.6195 44.1613 27.8246 44.1613 28.0385V36.103H43.3548V24.8127C43.3548 24.5988 43.2699 24.3937 43.1186 24.2425C42.9674 24.0912 42.7623 24.0063 42.5484 24.0063H39.3226C39.1087 24.0063 38.9036 24.0912 38.7523 24.2425C38.6011 24.3937 38.5161 24.5988 38.5161 24.8127V36.103H37.7097V30.4579C37.7097 30.244 37.6247 30.0389 37.4735 29.8876C37.3222 29.7364 37.1171 29.6514 36.9032 29.6514H33.6774C33.4635 29.6514 33.2584 29.7364 33.1072 29.8876C32.9559 30.0389 32.871 30.244 32.871 30.4579V36.103H27.2258C26.3706 36.104 25.5506 36.4442 24.9459 37.0489C24.3411 37.6537 24.001 38.4736 24 39.3288V63.5224C24.001 64.3776 24.3411 65.1976 24.9459 65.8023C25.5506 66.4071 26.3706 66.7472 27.2258 66.7482H43.8488L42.7732 69.974H40.129C39.9151 69.974 39.71 70.059 39.5588 70.2102C39.4075 70.3614 39.3226 70.5666 39.3226 70.7805V72.3934H31.2581C31.0442 72.3934 30.8391 72.4783 30.6878 72.6296C30.5366 72.7808 30.4516 72.9859 30.4516 73.1998C30.4516 73.4137 30.5366 73.6188 30.6878 73.7701C30.8391 73.9213 31.0442 74.0063 31.2581 74.0063H66.7419C66.9558 74.0063 67.1609 73.9213 67.3122 73.7701C67.4634 73.6188 67.5484 73.4137 67.5484 73.1998C67.5484 72.9859 67.4634 72.7808 67.3122 72.6296C67.1609 72.4783 66.9558 72.3934 66.7419 72.3934H58.6774V70.7805C58.6774 70.5666 58.5925 70.3614 58.4412 70.2102C58.29 70.059 58.0849 69.974 57.871 69.974H55.2268L54.1512 66.7482H70.7742C71.6294 66.7472 72.4494 66.4071 73.0541 65.8023C73.6589 65.1976 73.999 64.3776 74 63.5224V39.3288C73.999 38.4736 73.6589 37.6537 73.0541 37.0489C72.4494 36.4442 71.6294 36.104 70.7742 36.103ZM65.129 25.6776C66.3343 25.8535 67.4506 26.4138 68.3119 27.275C69.1732 28.1363 69.7334 29.2526 69.9093 30.4579H65.129V25.6776ZM64.6563 32.0708H69.9093C69.77 33.0398 69.3809 33.956 68.7803 34.7291C68.1797 35.5022 67.3882 36.1057 66.4837 36.4803C65.5791 36.8548 64.5927 36.9876 63.6214 36.8654C62.65 36.7432 61.7272 36.3704 60.9435 35.7835L64.6563 32.0708ZM58.6774 31.2643C58.6794 29.9075 59.1692 28.5965 60.0575 27.5709C60.9459 26.5452 62.1734 25.8733 63.5161 25.6776V30.9307L59.8034 34.6434C59.0714 33.669 58.6762 32.483 58.6774 31.2643ZM45.7742 28.845H47.3871V44.1676H45.7742V28.845ZM43.3548 37.7159H44.1613V44.1676H43.3548V37.7159ZM40.129 25.6192H41.7419V44.1676H40.129V25.6192ZM37.7097 37.7159H38.5161V44.1676H37.7097V37.7159ZM34.4839 31.2643H36.0968V44.1676H34.4839V31.2643ZM57.0645 71.5869V72.3934H40.9355V71.5869H57.0645ZM44.4738 69.974L45.5494 66.7482H52.4506L53.5262 69.974H44.4738ZM72.3871 63.5224C72.3865 63.95 72.2164 64.3599 71.9141 64.6623C71.6117 64.9646 71.2018 65.1347 70.7742 65.1353H27.2258C26.7982 65.1347 26.3883 64.9646 26.0859 64.6623C25.7836 64.3599 25.6135 63.95 25.6129 63.5224V61.9095H72.3871V63.5224ZM72.3871 60.2966H25.6129V39.3288C25.6135 38.9012 25.7836 38.4913 26.0859 38.189C26.3883 37.8866 26.7982 37.7165 27.2258 37.7159H32.871V44.1676H32.0645V39.3288C32.0645 39.115 31.9796 38.9098 31.8283 38.7586C31.6771 38.6074 31.4719 38.5224 31.2581 38.5224H28.0323C27.8184 38.5224 27.6132 38.6074 27.462 38.7586C27.3108 38.9098 27.2258 39.115 27.2258 39.3288V44.974C27.2258 45.1879 27.3108 45.393 27.462 45.5443C27.6132 45.6955 27.8184 45.7805 28.0323 45.7805H53.8387C54.0526 45.7805 54.2577 45.6955 54.409 45.5443C54.5602 45.393 54.6452 45.1879 54.6452 44.974V39.3288C54.6452 39.115 54.5602 38.9098 54.409 38.7586C54.2577 38.6074 54.0526 38.5224 53.8387 38.5224H50.6129C50.399 38.5224 50.1939 38.6074 50.0427 38.7586C49.8914 38.9098 49.8065 39.115 49.8065 39.3288V44.1676H49V37.7159H61.004C62.03 38.2459 63.1679 38.5224 64.3226 38.5224C65.4773 38.5224 66.6152 38.2459 67.6411 37.7159H70.7742C71.2018 37.7165 71.6117 37.8866 71.9141 38.189C72.2164 38.4913 72.3865 38.9012 72.3871 39.3288V60.2966ZM30.4516 40.1353V44.1676H28.8387V40.1353H30.4516ZM51.4194 44.1676V40.1353H53.0323V44.1676H51.4194Z" fill="#05DDCD"></path><path id="Vector_2" d="M32.8707 62.7158H28.032C27.8182 62.7158 27.613 62.8008 27.4618 62.952C27.3106 63.1033 27.2256 63.3084 27.2256 63.5223C27.2256 63.7362 27.3106 63.9413 27.4618 64.0925C27.613 64.2438 27.8182 64.3287 28.032 64.3287H32.8707C33.0846 64.3287 33.2898 64.2438 33.441 64.0925C33.5922 63.9413 33.6772 63.7362 33.6772 63.5223C33.6772 63.3084 33.5922 63.1033 33.441 62.952C33.2898 62.8008 33.0846 62.7158 32.8707 62.7158Z" fill="#05DDCD"></path><path id="Vector_3" d="M36.0963 62.7158H35.2899C35.076 62.7158 34.8708 62.8008 34.7196 62.952C34.5684 63.1033 34.4834 63.3084 34.4834 63.5223C34.4834 63.7362 34.5684 63.9413 34.7196 64.0925C34.8708 64.2438 35.076 64.3287 35.2899 64.3287H36.0963C36.3102 64.3287 36.5153 64.2438 36.6665 64.0925C36.8178 63.9413 36.9028 63.7362 36.9028 63.5223C36.9028 63.3084 36.8178 63.1033 36.6665 62.952C36.5153 62.8008 36.3102 62.7158 36.0963 62.7158Z" fill="#05DDCD"></path><path id="Vector_4" d="M57.8709 44.1678C57.9769 44.168 58.0818 44.1472 58.1796 44.1066C58.2775 44.0661 58.3664 44.0066 58.4412 43.9316L61.4307 40.942H68.3548C68.5687 40.942 68.7738 40.857 68.9251 40.7058C69.0763 40.5546 69.1613 40.3494 69.1613 40.1356C69.1613 39.9217 69.0763 39.7165 68.9251 39.5653C68.7738 39.4141 68.5687 39.3291 68.3548 39.3291H61.0967C60.9908 39.3291 60.886 39.35 60.7881 39.3905C60.6903 39.431 60.6014 39.4904 60.5265 39.5653L57.3007 42.7911C57.1879 42.9039 57.1111 43.0476 57.08 43.204C57.0488 43.3605 57.0648 43.5226 57.1258 43.67C57.1869 43.8173 57.2903 43.9433 57.4229 44.0319C57.5555 44.1205 57.7114 44.1678 57.8709 44.1678Z" fill="#05DDCD"></path><path id="Vector_5" d="M68.3545 53.0387C67.9307 53.039 67.5144 53.1506 67.1473 53.3624C66.7802 53.5742 66.4752 53.8786 66.2628 54.2454L57.8202 49.32C57.7059 48.7704 57.4039 48.2777 56.9662 47.9263C56.5284 47.5749 55.9821 47.3866 55.4208 47.3938C54.8595 47.4009 54.3182 47.603 53.8895 47.9655C53.4609 48.3279 53.1716 48.8281 53.0712 49.3804L44.5753 55.7524C44.3441 55.3965 44.0234 55.1077 43.6452 54.915C43.2671 54.7224 42.8449 54.6327 42.4211 54.655C41.9973 54.6772 41.5868 54.8107 41.231 55.0419C40.8751 55.2731 40.5864 55.594 40.3938 55.9722L31.9966 52.4732C31.8642 51.9208 31.5416 51.4325 31.0853 51.094C30.6291 50.7554 30.0684 50.5882 29.5012 50.6215C28.9341 50.6547 28.3968 50.8864 27.9833 51.276C27.5698 51.6656 27.3065 52.1882 27.2395 52.7523C27.1726 53.3165 27.3062 53.8862 27.617 54.3617C27.9277 54.8373 28.3959 55.1884 28.9395 55.3535C29.483 55.5186 30.0674 55.4873 30.5902 55.265C31.113 55.0427 31.5409 54.6436 31.7991 54.1375L40.1962 57.6365C40.3259 58.176 40.6371 58.6546 41.0777 58.9919C41.5183 59.3293 42.0615 59.5049 42.6161 59.4893C43.1708 59.4737 43.7033 59.2678 44.1242 58.9063C44.5451 58.5447 44.829 58.0494 44.9281 57.5034L53.4241 51.1315C53.6491 51.4782 53.9594 51.7614 54.3251 51.954C54.6909 52.1466 55.0999 52.2421 55.5132 52.2315C55.9264 52.2209 56.33 52.1044 56.6854 51.8933C57.0408 51.6822 57.3361 51.3834 57.543 51.0256L65.9856 55.951C66.0787 56.3988 66.2969 56.811 66.6149 57.1398C66.9328 57.4686 67.3374 57.7005 67.7818 57.8087C68.2262 57.9169 68.6921 57.897 69.1256 57.7511C69.5591 57.6053 69.9424 57.3396 70.231 56.9847C70.5196 56.6299 70.7017 56.2006 70.7563 55.7465C70.8108 55.2924 70.7355 54.8321 70.539 54.4191C70.3426 54.006 70.0332 53.6571 69.6465 53.4128C69.2599 53.1685 68.8119 53.0388 68.3545 53.0387ZM30.4513 53.0427C30.4507 53.257 30.3652 53.4623 30.2134 53.6135C30.0616 53.7647 29.8561 53.8495 29.6418 53.8492C29.4276 53.8489 29.2222 53.7636 29.0708 53.612C28.9194 53.4605 28.8343 53.255 28.8343 53.0407C28.8343 52.8265 28.9194 52.621 29.0708 52.4694C29.2222 52.3178 29.4276 52.2325 29.6418 52.2323C29.8561 52.232 30.0616 52.3168 30.2134 52.468C30.3652 52.6192 30.4507 52.8245 30.4513 53.0387V53.0427ZM42.5481 57.8774C42.3343 57.8771 42.1293 57.7921 41.9781 57.6409C41.827 57.4897 41.7419 57.2848 41.7416 57.071V57.0669C41.7424 56.9076 41.7904 56.7521 41.8795 56.62C41.9686 56.4879 42.0948 56.3852 42.2422 56.3248C42.3896 56.2643 42.5517 56.2489 42.7078 56.2805C42.864 56.3121 43.0073 56.3892 43.1197 56.5021C43.2321 56.6151 43.3085 56.7588 43.3393 56.9151C43.3701 57.0714 43.3539 57.2334 43.2927 57.3805C43.2316 57.5276 43.1282 57.6533 42.9957 57.7418C42.8631 57.8302 42.7074 57.8774 42.5481 57.8774ZM55.4513 50.6194C55.2918 50.6194 55.1359 50.5721 55.0032 50.4834C54.8706 50.3948 54.7673 50.2689 54.7062 50.1215C54.6452 49.9742 54.6292 49.812 54.6603 49.6556C54.6914 49.4991 54.7682 49.3554 54.881 49.2427C54.9938 49.1299 55.1375 49.0531 55.2939 49.0219C55.4504 48.9908 55.6125 49.0068 55.7599 49.0678C55.9073 49.1289 56.0332 49.2322 56.1218 49.3649C56.2104 49.4975 56.2577 49.6534 56.2577 49.8129C56.2574 50.0267 56.1724 50.2317 56.0212 50.3828C55.87 50.534 55.6651 50.6191 55.4513 50.6194ZM68.3545 56.2645C68.195 56.2645 68.0391 56.2172 67.9065 56.1286C67.7738 56.04 67.6705 55.914 67.6094 55.7667C67.5484 55.6193 67.5324 55.4572 67.5635 55.3007C67.5947 55.1443 67.6715 55.0006 67.7843 54.8878C67.897 54.775 68.0407 54.6982 68.1972 54.6671C68.3536 54.636 68.5158 54.652 68.6631 54.713C68.8105 54.774 68.9364 54.8774 69.025 55.01C69.1137 55.1426 69.161 55.2986 69.161 55.4581C69.1607 55.6719 69.0756 55.8768 68.9244 56.028C68.7733 56.1792 68.5683 56.2642 68.3545 56.2645Z" fill="#05DDCD"></path><path id="Vector_6" d="M61.9028 57.8774H56.2576C56.0437 57.8774 55.8386 57.9624 55.6874 58.1136C55.5361 58.2649 55.4512 58.47 55.4512 58.6839C55.4512 58.8978 55.5361 59.1029 55.6874 59.2541C55.8386 59.4054 56.0437 59.4903 56.2576 59.4903H61.9028C62.1167 59.4903 62.3218 59.4054 62.473 59.2541C62.6243 59.1029 62.7092 58.8978 62.7092 58.6839C62.7092 58.47 62.6243 58.2649 62.473 58.1136C62.3218 57.9624 62.1167 57.8774 61.9028 57.8774Z" fill="#05DDCD"></path><path id="Vector_7" d="M61.9035 55.458H59.4842C59.2703 55.458 59.0652 55.543 58.9139 55.6942C58.7627 55.8455 58.6777 56.0506 58.6777 56.2645C58.6777 56.4783 58.7627 56.6835 58.9139 56.8347C59.0652 56.9859 59.2703 57.0709 59.4842 57.0709H61.9035C62.1174 57.0709 62.3225 56.9859 62.4738 56.8347C62.625 56.6835 62.71 56.4783 62.71 56.2645C62.71 56.0506 62.625 55.8455 62.4738 55.6942C62.3225 55.543 62.1174 55.458 61.9035 55.458Z" fill="#05DDCD"></path><path id="Vector_8" d="M28.032 48.2003H36.903C37.1169 48.2003 37.322 48.1153 37.4733 47.9641C37.6245 47.8129 37.7095 47.6077 37.7095 47.3939C37.7095 47.18 37.6245 46.9748 37.4733 46.8236C37.322 46.6724 37.1169 46.5874 36.903 46.5874H28.032C27.8182 46.5874 27.613 46.6724 27.4618 46.8236C27.3106 46.9748 27.2256 47.18 27.2256 47.3939C27.2256 47.6077 27.3106 47.8129 27.4618 47.9641C27.613 48.1153 27.8182 48.2003 28.032 48.2003Z" fill="#05DDCD"></path><path id="Vector_9" d="M39.3231 48.2003H40.1295C40.3434 48.2003 40.5485 48.1153 40.6998 47.9641C40.851 47.8129 40.936 47.6077 40.936 47.3939C40.936 47.18 40.851 46.9748 40.6998 46.8236C40.5485 46.6724 40.3434 46.5874 40.1295 46.5874H39.3231C39.1092 46.5874 38.904 46.6724 38.7528 46.8236C38.6016 46.9748 38.5166 47.18 38.5166 47.3939C38.5166 47.6077 38.6016 47.8129 38.7528 47.9641C38.904 48.1153 39.1092 48.2003 39.3231 48.2003Z" fill="#05DDCD"></path></g></g><defs><linearGradient id="paint0_linear_2024_225" x1="-149" y1="-242.5" x2="56" y2="63.5" gradientUnits="userSpaceOnUse"><stop offset="0.215" stop-color="#05DDCD"></stop><stop offset="1" stop-color="#000913"></stop></linearGradient><linearGradient id="paint1_linear_2024_225" x1="4.5" y1="10.5" x2="50" y2="55" gradientUnits="userSpaceOnUse"><stop offset="0.445" stop-color="#05DDCD"></stop><stop offset="1" stop-opacity="0"></stop></linearGradient></defs></svg>