<svg xmlns="http://www.w3.org/2000/svg" width="1105" height="156" viewBox="0 0 1105 156" fill="none"><g opacity="0.15"><path d="M37.1507 31.8943V62.7038H86.9023V91.3435H37.1507V124.757H93.42V154.481H0V2.16968H93.42V31.8943H37.1507Z" fill="url(#paint0_linear_271_334)"></path><path d="M253.975 154.481H216.825L154.689 60.5341V154.481H117.539V2.16968H154.689L216.825 96.5508V2.16968H253.975V154.481Z" fill="url(#paint1_linear_271_334)"></path><path d="M390.619 2.16968V31.8943H350.209V154.481H313.059V31.8943H272.649V2.16968H390.619Z" fill="url(#paint2_linear_271_334)"></path><path d="M487.042 154.481L455.322 96.9847H446.415V154.481H409.264V2.16968H471.616C483.638 2.16968 493.849 4.26703 502.249 8.46175C510.795 12.6565 517.168 18.4423 521.368 25.8192C525.568 33.0515 527.668 41.1516 527.668 50.1196C527.668 60.2448 524.772 69.2851 518.978 77.2406C513.33 85.1961 504.929 90.8373 493.776 94.1641L528.972 154.481H487.042ZM446.415 70.7316H469.444C476.251 70.7316 481.32 69.0681 484.652 65.7413C488.128 62.4145 489.866 57.7135 489.866 51.6384C489.866 45.8526 488.128 41.2962 484.652 37.9694C481.32 34.6426 476.251 32.9791 469.444 32.9791H446.415V70.7316Z" fill="url(#paint3_linear_271_334)"></path><path d="M588.14 31.8943V62.7038H637.892V91.3435H588.14V124.757H644.409V154.481H550.989V2.16968H644.409V31.8943H588.14Z" fill="url(#paint4_linear_271_334)"></path><path d="M769.769 50.3366C767.017 45.274 763.034 41.4409 757.82 38.8373C752.751 36.089 746.74 34.7149 739.788 34.7149C727.767 34.7149 718.135 38.6926 710.893 46.6481C703.651 54.459 700.03 64.9458 700.03 78.1085C700.03 92.1391 703.796 103.132 711.328 111.088C719.004 118.898 729.505 122.804 742.83 122.804C751.954 122.804 759.631 120.49 765.859 115.861C772.232 111.232 776.866 104.579 779.763 95.8999H732.619V68.5619H813.438V103.06C810.686 112.317 805.979 120.924 799.316 128.879C792.798 136.834 784.47 143.271 774.332 148.189C764.193 153.107 752.751 155.566 740.005 155.566C724.942 155.566 711.472 152.312 699.596 145.803C687.864 139.149 678.667 129.964 672.004 118.248C665.487 106.531 662.228 93.1516 662.228 78.1085C662.228 63.0654 665.487 49.6857 672.004 37.9694C678.667 26.1085 687.864 16.9235 699.596 10.4145C711.328 3.76077 724.725 0.43393 739.788 0.43393C758.038 0.43393 773.39 4.84561 785.846 13.669C798.447 22.4923 806.775 34.7149 810.831 50.3366H769.769Z" fill="url(#paint5_linear_271_334)"></path><path d="M928.957 127.577H872.036L862.911 154.481H824.022L879.205 2.16968H922.222L977.405 154.481H938.081L928.957 127.577ZM919.397 98.9374L900.496 43.1766L881.812 98.9374H919.397Z" fill="url(#paint6_linear_271_334)"></path><path d="M1049.38 156C1038.23 156 1028.24 154.192 1019.4 150.576C1010.57 146.96 1003.47 141.608 998.11 134.52C992.896 127.433 990.144 118.898 989.854 108.918H1029.4C1029.97 114.559 1031.93 118.898 1035.26 121.936C1038.59 124.829 1042.94 126.275 1048.3 126.275C1053.8 126.275 1058.15 125.046 1061.33 122.587C1064.52 119.983 1066.11 116.439 1066.11 111.955C1066.11 108.195 1064.81 105.085 1062.2 102.626C1059.74 100.167 1056.62 98.1419 1052.86 96.5508C1049.24 94.9597 1044.02 93.1516 1037.22 91.1266C1027.37 88.089 1019.33 85.0515 1013.1 82.0139C1006.87 78.9763 1001.51 74.4923 997.024 68.5619C992.534 62.6314 990.289 54.8929 990.289 45.3463C990.289 31.1711 995.431 20.1057 1005.71 12.1502C1016 4.05007 1029.4 0 1045.91 0C1062.71 0 1076.25 4.05007 1086.53 12.1502C1096.82 20.1057 1102.32 31.2434 1103.04 45.5633H1062.85C1062.56 40.6453 1060.75 36.8122 1057.42 34.064C1054.09 31.1711 1049.82 29.7246 1044.6 29.7246C1040.11 29.7246 1036.49 30.9541 1033.74 33.4131C1030.99 35.7274 1029.61 39.1266 1029.61 43.6106C1029.61 48.5285 1031.93 52.3616 1036.56 55.1099C1041.2 57.8581 1048.44 60.8234 1058.29 64.0056C1068.14 67.3324 1076.1 70.5146 1082.19 73.5521C1088.42 76.5897 1093.78 81.0014 1098.27 86.7872C1102.76 92.573 1105 100.022 1105 109.135C1105 117.814 1102.76 125.697 1098.27 132.784C1093.92 139.872 1087.55 145.513 1079.15 149.708C1070.75 153.903 1060.82 156 1049.38 156Z" fill="url(#paint7_linear_271_334)"></path></g><defs><linearGradient id="paint0_linear_271_334" x1="550.462" y1="-17.5" x2="550.462" y2="167.5" gradientUnits="userSpaceOnUse"><stop stop-color="#05DDCD"></stop><stop offset="1" stop-color="#05DDCD" stop-opacity="0"></stop></linearGradient><linearGradient id="paint1_linear_271_334" x1="550.462" y1="-17.5" x2="550.462" y2="167.5" gradientUnits="userSpaceOnUse"><stop stop-color="#05DDCD"></stop><stop offset="1" stop-color="#05DDCD" stop-opacity="0"></stop></linearGradient><linearGradient id="paint2_linear_271_334" x1="550.462" y1="-17.5" x2="550.462" y2="167.5" gradientUnits="userSpaceOnUse"><stop stop-color="#05DDCD"></stop><stop offset="1" stop-color="#05DDCD" stop-opacity="0"></stop></linearGradient><linearGradient id="paint3_linear_271_334" x1="550.462" y1="-17.5" x2="550.462" y2="167.5" gradientUnits="userSpaceOnUse"><stop stop-color="#05DDCD"></stop><stop offset="1" stop-color="#05DDCD" stop-opacity="0"></stop></linearGradient><linearGradient id="paint4_linear_271_334" x1="550.462" y1="-17.5" x2="550.462" y2="167.5" gradientUnits="userSpaceOnUse"><stop stop-color="#05DDCD"></stop><stop offset="1" stop-color="#05DDCD" stop-opacity="0"></stop></linearGradient><linearGradient id="paint5_linear_271_334" x1="550.462" y1="-17.5" x2="550.462" y2="167.5" gradientUnits="userSpaceOnUse"><stop stop-color="#05DDCD"></stop><stop offset="1" stop-color="#05DDCD" stop-opacity="0"></stop></linearGradient><linearGradient id="paint6_linear_271_334" x1="550.462" y1="-17.5" x2="550.462" y2="167.5" gradientUnits="userSpaceOnUse"><stop stop-color="#05DDCD"></stop><stop offset="1" stop-color="#05DDCD" stop-opacity="0"></stop></linearGradient><linearGradient id="paint7_linear_271_334" x1="550.462" y1="-17.5" x2="550.462" y2="167.5" gradientUnits="userSpaceOnUse"><stop stop-color="#05DDCD"></stop><stop offset="1" stop-color="#05DDCD" stop-opacity="0"></stop></linearGradient></defs></svg>