<svg xmlns="http://www.w3.org/2000/svg" width="99" height="99" viewBox="0 0 99 99" fill="none"><g id="iconeDecola"><circle id="circulo" cx="49.5" cy="49.5" r="48.5" fill="url(#paint0_linear_2024_226)" stroke="url(#paint1_linear_2024_226)" stroke-width="2"></circle><g id="logoIcone"><path d="M67.8613 50.6542C66.7915 52.3268 65.6368 54.0164 64.3972 55.689C64.1425 57.8286 63.5736 59.7644 62.6991 61.4965C61.4595 63.9332 59.7359 65.8011 57.5284 67.1087C56.136 67.9322 54.6247 68.4926 52.986 68.7898C51.5087 70.2161 50.0229 71.5322 48.5625 72.7463C47.4333 73.6802 46.3211 74.5463 45.2173 75.3274C46.7456 75.6415 48.3418 75.7944 50.0059 75.7944C54.1153 75.7944 57.8426 74.818 61.1878 72.8652C64.5245 70.9124 67.1481 68.2039 69.0584 64.7398C70.9688 61.2757 71.9282 57.3616 71.9282 52.9976C71.9282 50.3486 71.5801 47.8778 70.8754 45.5684C69.9669 47.2326 68.965 48.9307 67.8613 50.6542Z" fill="#05DDCD"></path><path d="M52.4936 30.3791C52.1625 30.3451 51.8313 30.3197 51.5002 30.3027C51.0078 30.2772 50.5068 30.2602 50.0059 30.2602C45.8456 30.2602 42.1013 31.2281 38.7646 33.1555C35.4194 35.0828 32.7873 37.7827 30.86 41.2468C28.9242 44.7109 27.9648 48.625 27.9648 52.9976C27.9648 55.4004 28.2619 57.6673 28.8478 59.7984C28.9666 60.2399 29.094 60.6644 29.2468 61.0889L28.9921 61.7003C28.9157 61.8786 28.8478 62.0653 28.7798 62.2352L28.7459 62.3201C26.3006 68.8662 26.428 73.6633 29.1025 75.8283C30.0704 76.6009 31.293 77 32.7449 77C34.8675 77 37.4486 76.1594 40.4202 74.4953C42.6192 73.2642 44.9541 71.634 47.3654 69.6388C51.3559 66.3445 55.4568 62.1418 59.2265 57.4805C61.4 54.7721 63.3953 52.0212 65.1443 49.2873C66.9698 46.443 68.5065 43.6581 69.7292 41.0091C71.8263 36.4922 72.8791 32.5951 72.8791 29.5895C72.8791 27.1442 72.1829 25.2848 70.782 24.1556C67.4707 21.4896 61.1284 23.4849 53.3766 29.6404C53.2238 29.7593 53.0709 29.8781 52.9266 30.0055L52.4851 30.3706L52.4936 30.3791ZM67.8528 39.3025C66.0953 36.7554 63.8708 34.7007 61.1793 33.147C59.4473 32.1451 57.6048 31.3979 55.6605 30.9225C61.7991 26.2188 67.1141 24.3084 69.2707 26.0405C70.0858 26.6942 70.4933 27.8829 70.4933 29.581C70.4933 32.0687 69.5848 35.4224 67.8528 39.3025ZM38.5778 72.7548C34.9269 74.6651 32.0402 75.1066 30.6138 73.9604C28.9921 72.6529 29.0006 69.0615 30.6138 64.2813C30.6902 64.4342 30.7751 64.587 30.86 64.7398C32.7534 68.1445 35.326 70.819 38.5778 72.7548Z" fill="#05DDCD"></path></g></g><defs><linearGradient id="paint0_linear_2024_226" x1="-149" y1="-242.5" x2="56" y2="63.5" gradientUnits="userSpaceOnUse"><stop offset="0.215" stop-color="#05DDCD"></stop><stop offset="1" stop-color="#000913"></stop></linearGradient><linearGradient id="paint1_linear_2024_226" x1="4.5" y1="10.5" x2="50" y2="55" gradientUnits="userSpaceOnUse"><stop offset="0.445" stop-color="#05DDCD"></stop><stop offset="1" stop-opacity="0"></stop></linearGradient></defs></svg>