<svg xmlns="http://www.w3.org/2000/svg" width="317" height="115" viewBox="0 0 317 115" fill="none"><path d="M24.18 6.06V37.8C24.18 41 23.2 43.58 21.24 45.54C19.28 47.46 16.66 48.42 13.38 48.42C9.98 48.42 7.26 47.4 5.22 45.36C3.22 43.28 2.22 40.48 2.22 36.96H6.48C6.52 39.24 7.08 41.1 8.16 42.54C9.28 43.98 11.02 44.7 13.38 44.7C15.62 44.7 17.28 44.04 18.36 42.72C19.44 41.4 19.98 39.76 19.98 37.8V6.06H24.18ZM63.1214 15.24V48H58.9214V42.24C57.9614 44.28 56.4814 45.84 54.4814 46.92C52.4814 48 50.2414 48.54 47.7614 48.54C43.8414 48.54 40.6414 47.34 38.1614 44.94C35.6814 42.5 34.4414 38.98 34.4414 34.38V15.24H38.5814V33.9C38.5814 37.46 39.4614 40.18 41.2214 42.06C43.0214 43.94 45.4614 44.88 48.5414 44.88C51.7014 44.88 54.2214 43.88 56.1014 41.88C57.9814 39.88 58.9214 36.94 58.9214 33.06V15.24H63.1214ZM76.9102 3.6V48H72.7102V3.6H76.9102ZM88.5211 9.06C87.6811 9.06 86.9611 8.76 86.3611 8.16C85.7611 7.56 85.4611 6.82 85.4611 5.94C85.4611 5.06 85.7611 4.34 86.3611 3.78C86.9611 3.18 87.6811 2.88 88.5211 2.88C89.3611 2.88 90.0811 3.18 90.6811 3.78C91.2811 4.34 91.5811 5.06 91.5811 5.94C91.5811 6.82 91.2811 7.56 90.6811 8.16C90.0811 8.76 89.3611 9.06 88.5211 9.06ZM90.6211 15.24V48H86.4211V15.24H90.6211ZM98.212 31.56C98.212 28.2 98.872 25.26 100.192 22.74C101.552 20.18 103.412 18.22 105.772 16.86C108.172 15.46 110.872 14.76 113.872 14.76C116.992 14.76 119.672 15.48 121.912 16.92C124.192 18.36 125.832 20.2 126.832 22.44V15.24H131.032V48H126.832V40.74C125.792 42.98 124.132 44.84 121.852 46.32C119.612 47.76 116.932 48.48 113.812 48.48C110.852 48.48 108.172 47.78 105.772 46.38C103.412 44.98 101.552 43 100.192 40.44C98.872 37.88 98.212 34.92 98.212 31.56ZM126.832 31.62C126.832 28.98 126.292 26.66 125.212 24.66C124.132 22.66 122.652 21.12 120.772 20.04C118.932 18.96 116.892 18.42 114.652 18.42C112.332 18.42 110.252 18.94 108.412 19.98C106.572 21.02 105.112 22.54 104.032 24.54C102.992 26.5 102.472 28.84 102.472 31.56C102.472 34.24 102.992 36.6 104.032 38.64C105.112 40.64 106.572 42.18 108.412 43.26C110.252 44.3 112.332 44.82 114.652 44.82C116.892 44.82 118.932 44.28 120.772 43.2C122.652 42.12 124.132 40.58 125.212 38.58C126.292 36.58 126.832 34.26 126.832 31.62ZM155.98 14.64C159.9 14.64 163.1 15.86 165.58 18.3C168.06 20.7 169.3 24.2 169.3 28.8V48H165.16V29.28C165.16 25.72 164.26 23 162.46 21.12C160.7 19.24 158.28 18.3 155.2 18.3C152.04 18.3 149.52 19.3 147.64 21.3C145.76 23.3 144.82 26.24 144.82 30.12V48H140.62V15.24H144.82V20.82C145.86 18.82 147.36 17.3 149.32 16.26C151.28 15.18 153.5 14.64 155.98 14.64ZM176.669 31.56C176.669 28.2 177.329 25.26 178.649 22.74C180.009 20.18 181.869 18.22 184.229 16.86C186.629 15.46 189.329 14.76 192.329 14.76C195.449 14.76 198.129 15.48 200.369 16.92C202.649 18.36 204.289 20.2 205.289 22.44V15.24H209.489V48H205.289V40.74C204.249 42.98 202.589 44.84 200.309 46.32C198.069 47.76 195.389 48.48 192.269 48.48C189.309 48.48 186.629 47.78 184.229 46.38C181.869 44.98 180.009 43 178.649 40.44C177.329 37.88 176.669 34.92 176.669 31.56ZM205.289 31.62C205.289 28.98 204.749 26.66 203.669 24.66C202.589 22.66 201.109 21.12 199.229 20.04C197.389 18.96 195.349 18.42 193.109 18.42C190.789 18.42 188.709 18.94 186.869 19.98C185.029 21.02 183.569 22.54 182.489 24.54C181.449 26.5 180.929 28.84 180.929 31.56C180.929 34.24 181.449 36.6 182.489 38.64C183.569 40.64 185.029 42.18 186.869 43.26C188.709 44.3 190.789 44.82 193.109 44.82C195.349 44.82 197.389 44.28 199.229 43.2C201.109 42.12 202.589 40.58 203.669 38.58C204.749 36.58 205.289 34.26 205.289 31.62Z" fill="white"></path><path d="M85.82 80.44C85.82 82.88 85.26 85.12 84.14 87.16C83.02 89.16 81.3 90.78 78.98 92.02C76.66 93.26 73.78 93.88 70.34 93.88H63.98V109H53.72V66.88H70.34C73.7 66.88 76.54 67.46 78.86 68.62C81.18 69.78 82.92 71.38 84.08 73.42C85.24 75.46 85.82 77.8 85.82 80.44ZM69.56 85.72C71.52 85.72 72.98 85.26 73.94 84.34C74.9 83.42 75.38 82.12 75.38 80.44C75.38 78.76 74.9 77.46 73.94 76.54C72.98 75.62 71.52 75.16 69.56 75.16H63.98V85.72H69.56ZM89.1214 92.2C89.1214 88.76 89.7614 85.74 91.0414 83.14C92.3614 80.54 94.1414 78.54 96.3814 77.14C98.6214 75.74 101.121 75.04 103.881 75.04C106.241 75.04 108.301 75.52 110.061 76.48C111.861 77.44 113.241 78.7 114.201 80.26V75.52H124.461V109H114.201V104.26C113.201 105.82 111.801 107.08 110.001 108.04C108.241 109 106.181 109.48 103.821 109.48C101.101 109.48 98.6214 108.78 96.3814 107.38C94.1414 105.94 92.3614 103.92 91.0414 101.32C89.7614 98.68 89.1214 95.64 89.1214 92.2ZM114.201 92.26C114.201 89.7 113.481 87.68 112.041 86.2C110.641 84.72 108.921 83.98 106.881 83.98C104.841 83.98 103.101 84.72 101.661 86.2C100.261 87.64 99.5614 89.64 99.5614 92.2C99.5614 94.76 100.261 96.8 101.661 98.32C103.101 99.8 104.841 100.54 106.881 100.54C108.921 100.54 110.641 99.8 112.041 98.32C113.481 96.84 114.201 94.82 114.201 92.26ZM129.844 92.26C129.844 88.78 130.544 85.74 131.944 83.14C133.384 80.54 135.364 78.54 137.884 77.14C140.444 75.74 143.364 75.04 146.644 75.04C150.844 75.04 154.344 76.14 157.144 78.34C159.984 80.54 161.844 83.64 162.724 87.64H151.804C150.884 85.08 149.104 83.8 146.464 83.8C144.584 83.8 143.084 84.54 141.964 86.02C140.844 87.46 140.284 89.54 140.284 92.26C140.284 94.98 140.844 97.08 141.964 98.56C143.084 100 144.584 100.72 146.464 100.72C149.104 100.72 150.884 99.44 151.804 96.88H162.724C161.844 100.8 159.984 103.88 157.144 106.12C154.304 108.36 150.804 109.48 146.644 109.48C143.364 109.48 140.444 108.78 137.884 107.38C135.364 105.98 133.384 103.98 131.944 101.38C130.544 98.78 129.844 95.74 129.844 92.26ZM188.792 75.16C192.632 75.16 195.712 76.44 198.032 79C200.352 81.52 201.512 85 201.512 89.44V109H191.312V90.82C191.312 88.58 190.732 86.84 189.572 85.6C188.412 84.36 186.852 83.74 184.892 83.74C182.932 83.74 181.372 84.36 180.212 85.6C179.052 86.84 178.472 88.58 178.472 90.82V109H168.212V64.6H178.472V80.02C179.512 78.54 180.932 77.36 182.732 76.48C184.532 75.6 186.552 75.16 188.792 75.16ZM240.202 91.72C240.202 92.68 240.142 93.68 240.022 94.72H216.802C216.962 96.8 217.622 98.4 218.782 99.52C219.982 100.6 221.442 101.14 223.162 101.14C225.722 101.14 227.502 100.06 228.502 97.9H239.422C238.862 100.1 237.842 102.08 236.362 103.84C234.922 105.6 233.102 106.98 230.902 107.98C228.702 108.98 226.242 109.48 223.522 109.48C220.242 109.48 217.322 108.78 214.762 107.38C212.202 105.98 210.202 103.98 208.762 101.38C207.322 98.78 206.602 95.74 206.602 92.26C206.602 88.78 207.302 85.74 208.702 83.14C210.142 80.54 212.142 78.54 214.702 77.14C217.262 75.74 220.202 75.04 223.522 75.04C226.762 75.04 229.642 75.72 232.162 77.08C234.682 78.44 236.642 80.38 238.042 82.9C239.482 85.42 240.202 88.36 240.202 91.72ZM229.702 89.02C229.702 87.26 229.102 85.86 227.902 84.82C226.702 83.78 225.202 83.26 223.402 83.26C221.682 83.26 220.222 83.76 219.022 84.76C217.862 85.76 217.142 87.18 216.862 89.02H229.702ZM243.575 92.26C243.575 88.78 244.275 85.74 245.675 83.14C247.115 80.54 249.095 78.54 251.615 77.14C254.175 75.74 257.095 75.04 260.375 75.04C264.575 75.04 268.075 76.14 270.875 78.34C273.715 80.54 275.575 83.64 276.455 87.64H265.535C264.615 85.08 262.835 83.8 260.195 83.8C258.315 83.8 256.815 84.54 255.695 86.02C254.575 87.46 254.015 89.54 254.015 92.26C254.015 94.98 254.575 97.08 255.695 98.56C256.815 100 258.315 100.72 260.195 100.72C262.835 100.72 264.615 99.44 265.535 96.88H276.455C275.575 100.8 273.715 103.88 270.875 106.12C268.035 108.36 264.535 109.48 260.375 109.48C257.095 109.48 254.175 108.78 251.615 107.38C249.095 105.98 247.115 103.98 245.675 101.38C244.275 98.78 243.575 95.74 243.575 92.26ZM297.183 109.48C293.903 109.48 290.943 108.78 288.303 107.38C285.703 105.98 283.643 103.98 282.123 101.38C280.643 98.78 279.903 95.74 279.903 92.26C279.903 88.82 280.663 85.8 282.183 83.2C283.703 80.56 285.783 78.54 288.423 77.14C291.063 75.74 294.023 75.04 297.303 75.04C300.583 75.04 303.543 75.74 306.183 77.14C308.823 78.54 310.903 80.56 312.423 83.2C313.943 85.8 314.703 88.82 314.703 92.26C314.703 95.7 313.923 98.74 312.363 101.38C310.843 103.98 308.743 105.98 306.063 107.38C303.423 108.78 300.463 109.48 297.183 109.48ZM297.183 100.6C299.143 100.6 300.803 99.88 302.163 98.44C303.563 97 304.263 94.94 304.263 92.26C304.263 89.58 303.583 87.52 302.223 86.08C300.903 84.64 299.263 83.92 297.303 83.92C295.303 83.92 293.643 84.64 292.323 86.08C291.003 87.48 290.343 89.54 290.343 92.26C290.343 94.94 290.983 97 292.263 98.44C293.583 99.88 295.223 100.6 297.183 100.6Z" fill="url(#paint0_linear_2056_225)"></path><defs><linearGradient id="paint0_linear_2056_225" x1="50" y1="88" x2="317" y2="88" gradientUnits="userSpaceOnUse"><stop stop-color="#05DDCD"></stop><stop offset="0.445" stop-color="white"></stop><stop offset="1" stop-color="#05DDCD"></stop></linearGradient></defs></svg>