<svg xmlns="http://www.w3.org/2000/svg" width="99" height="99" viewBox="0 0 99 99" fill="none"><g id="iconeCriacao"><circle id="circulo1" cx="49.5" cy="49.5" r="48.5" fill="url(#paint0_linear_2025_235)" stroke="url(#paint1_linear_2025_235)" stroke-width="2"></circle><g id="interno1"><path id="Vector" d="M49.0454 32.9277C40.5565 32.9277 33.6211 39.8631 33.6211 48.3521C33.6211 52.7907 35.563 57.063 38.8365 59.9481C41.2778 62.3893 41.0559 67.6048 41.0004 67.6603C41.0004 67.9377 41.0559 68.1596 41.2778 68.3815C41.4442 68.548 41.7216 68.659 41.9436 68.659H56.0918C56.3692 68.659 56.5912 68.548 56.7576 68.3815C56.9241 68.2151 57.035 67.9377 57.035 67.6603C57.035 67.6048 56.7576 62.3893 59.1989 59.9481C59.2544 59.8926 59.3098 59.8371 59.3653 59.7816C62.5834 56.841 64.4698 52.6798 64.4698 48.3521C64.4698 39.8631 57.5344 32.9277 49.0454 32.9277ZM57.9228 58.5055C57.8673 58.561 57.7563 58.672 57.7563 58.7275C55.5925 61.0578 55.2041 64.8861 55.1486 66.717H42.8868C42.8313 64.8861 42.4429 60.8913 40.1126 58.5055C37.172 55.9533 35.452 52.2359 35.452 48.2966C35.452 40.8064 41.4997 34.7587 48.99 34.7587C56.4802 34.7587 62.5279 40.8064 62.5279 48.2966C62.5279 52.2359 60.8634 55.9533 57.9228 58.5055Z" fill="#05DDCD"></path><path id="Vector_2" d="M48.9901 36.8672C48.4907 36.8672 48.0469 37.3111 48.0469 37.8104C48.0469 38.3098 48.4907 38.7536 48.9901 38.7536C54.5939 38.7536 59.088 43.3032 59.088 48.8516C59.088 49.3509 59.5319 49.7948 60.0313 49.7948C60.5306 49.7948 60.9745 49.3509 60.9745 48.8516C61.03 42.2491 55.6481 36.8672 48.9901 36.8672Z" fill="#05DDCD"></path><path id="Vector_3" d="M55.1486 69.7129H42.8313C41.5552 69.7129 40.501 70.7671 40.501 72.0432C40.501 73.3193 41.5552 74.3735 42.8313 74.3735H55.0931C56.4247 74.318 57.4789 73.3193 57.4789 72.0432C57.4789 70.7671 56.4247 69.7129 55.1486 69.7129ZM55.1486 72.4316H42.8313C42.6093 72.4316 42.3874 72.2651 42.3874 71.9877C42.3874 71.7103 42.5539 71.5438 42.8313 71.5438H55.0931C55.315 71.5438 55.5369 71.7103 55.5369 71.9877C55.5369 72.2651 55.3705 72.4316 55.1486 72.4316Z" fill="#05DDCD"></path><path id="Vector_4" d="M53.3177 75.3169H44.6623C43.3862 75.3169 42.332 76.3711 42.332 77.6472C42.332 78.9233 43.3862 79.9775 44.6623 79.9775H53.3177C54.5938 79.9775 55.648 78.9233 55.648 77.6472C55.648 76.3156 54.5938 75.3169 53.3177 75.3169ZM53.3177 78.0356H44.6623C44.4404 78.0356 44.2185 77.8691 44.2185 77.5917C44.2185 77.3143 44.3849 77.1478 44.6623 77.1478H53.3177C53.5397 77.1478 53.7616 77.3143 53.7616 77.5917C53.7616 77.8691 53.5397 78.0356 53.3177 78.0356Z" fill="#05DDCD"></path><path id="Vector_5" d="M48.9901 28.3225C49.5449 28.3225 49.9333 27.8786 49.9333 27.3793V20.9432C49.9333 20.4439 49.4894 20 48.9901 20C48.4907 20 48.0469 20.4439 48.0469 20.9432V27.3793C48.0469 27.8786 48.4907 28.3225 48.9901 28.3225Z" fill="#05DDCD"></path><path id="Vector_6" d="M64.6915 24.7713C64.2476 24.4384 63.6928 24.6048 63.4154 24.9932L59.8645 30.3196C59.5316 30.7635 59.6425 31.3738 60.0864 31.6512C60.2528 31.7622 60.4193 31.8176 60.5857 31.8176C60.9186 31.8176 61.1961 31.6512 61.3625 31.3738L64.9134 26.0474C65.2463 25.659 65.1354 25.0487 64.6915 24.7713Z" fill="#05DDCD"></path><path id="Vector_7" d="M37.7272 31.5962C37.8936 31.5962 38.0601 31.5407 38.2265 31.4297C38.6704 31.1523 38.7814 30.542 38.5039 30.0981L35.064 24.7163C34.7866 24.2724 34.1762 24.1614 33.7324 24.4388C33.2885 24.7163 33.1775 25.3266 33.455 25.7704L36.8949 31.1523C37.1169 31.4852 37.3943 31.5962 37.7272 31.5962Z" fill="#05DDCD"></path><path id="Vector_8" d="M31.0136 37.4776L25.4098 34.426C24.9659 34.2041 24.3556 34.3705 24.1336 34.8144C23.8562 35.2582 24.0227 35.8686 24.522 36.0905L30.1258 39.1421C30.2923 39.1976 30.4032 39.253 30.5697 39.253C30.9026 39.253 31.2355 39.0866 31.4019 38.7537C31.6239 38.3098 31.4574 37.6995 31.0136 37.4776Z" fill="#05DDCD"></path><path id="Vector_9" d="M73.9021 34.8144C73.6802 34.3705 73.0699 34.2041 72.626 34.426L66.9667 37.4776C66.5229 37.6995 66.3564 38.3098 66.5783 38.7537C66.7448 39.0866 67.0777 39.253 67.4106 39.253C67.577 39.253 67.7435 39.1976 67.8545 39.1421L73.5138 36.0905C73.9576 35.8686 74.1241 35.2582 73.9021 34.8144Z" fill="#05DDCD"></path></g></g><defs><linearGradient id="paint0_linear_2025_235" x1="-149" y1="-242.5" x2="56" y2="63.5" gradientUnits="userSpaceOnUse"><stop offset="0.215" stop-color="#05DDCD"></stop><stop offset="1" stop-color="#000913"></stop></linearGradient><linearGradient id="paint1_linear_2025_235" x1="4.5" y1="10.5" x2="50" y2="55" gradientUnits="userSpaceOnUse"><stop offset="0.445" stop-color="#05DDCD"></stop><stop offset="1" stop-opacity="0"></stop></linearGradient></defs></svg>