<?xml version="1.0" encoding="UTF-8"?> <svg xmlns="http://www.w3.org/2000/svg" width="1303" height="226" viewBox="0 0 1303 226" fill="none"><g opacity="0.1"><path d="M39.2349 133.347H90.6304V163.695H0V2.29908H39.2349V133.347Z" fill="url(#paint0_linear_271_420)"></path><path d="M209.611 135.186H149.497L139.86 163.695H98.79L157.069 2.29908H202.499L260.777 163.695H219.248L209.611 135.186ZM199.516 104.838L179.554 45.7518L159.822 104.838H199.516Z" fill="url(#paint1_linear_271_420)"></path><path d="M422.605 163.695H383.37L317.75 64.1445V163.695H278.515V2.29908H317.75L383.37 102.309V2.29908H422.605V163.695Z" fill="url(#paint2_linear_271_420)"></path><path d="M524.927 129.209C532.422 129.209 539.076 127.446 544.888 123.921C550.854 120.395 555.443 115.261 558.655 108.517H601.79C597.66 123.997 589.936 136.642 578.617 146.452C567.45 156.108 553.837 162.009 537.776 164.155V173.121C545.73 173.121 552.689 175.267 558.655 179.559C564.621 184.003 567.603 190.594 567.603 199.331C567.603 208.067 564.468 214.658 558.196 219.103C551.925 223.701 544.429 226 535.711 226H500.376V204.389H530.433C533.493 204.389 535.787 203.929 537.317 203.009C538.846 202.09 539.611 200.557 539.611 198.411C539.611 196.265 538.846 194.732 537.317 193.813C535.787 193.046 533.493 192.663 530.433 192.663H514.143V164.155C500.376 162.622 488.216 158.254 477.661 151.05C467.107 143.693 458.923 134.113 453.111 122.311C447.298 110.509 444.392 97.3279 444.392 82.767C444.392 66.8267 447.833 52.649 454.717 40.234C461.6 27.6656 471.16 17.9329 483.397 11.0356C495.787 3.98507 509.783 0.459811 525.386 0.459811C544.506 0.459811 560.873 5.5178 574.487 15.6338C588.1 25.7497 597.202 39.5443 601.79 57.0173H558.655C555.443 50.2733 550.854 45.1387 544.888 41.6134C539.076 38.0882 532.422 36.3255 524.927 36.3255C512.843 36.3255 503.053 40.5405 495.558 48.9705C488.063 57.4005 484.315 68.666 484.315 82.767C484.315 96.8681 488.063 108.134 495.558 116.564C503.053 124.994 512.843 129.209 524.927 129.209Z" fill="url(#paint3_linear_271_420)"></path><path d="M726.085 135.186H665.97L656.334 163.695H615.263L673.542 2.29908H718.972L777.251 163.695H735.721L726.085 135.186ZM715.989 104.838L696.027 45.7518L676.295 104.838H715.989Z" fill="url(#paint4_linear_271_420)"></path><path d="M977.396 2.29908V163.695H938.161V66.9034L902.138 163.695H870.475L834.223 66.6734V163.695H794.988V2.29908H841.335L886.536 114.035L931.277 2.29908H977.396Z" fill="url(#paint5_linear_271_420)"></path><path d="M1081.79 165.304C1066.64 165.304 1052.72 161.779 1040.03 154.728C1027.48 147.678 1017.46 137.868 1009.97 125.3C1002.63 112.578 998.956 98.3242 998.956 82.5371C998.956 66.7501 1002.63 52.5724 1009.97 40.0041C1017.46 27.4357 1027.48 17.6263 1040.03 10.5758C1052.72 3.52526 1066.64 0 1081.79 0C1096.93 0 1110.77 3.52526 1123.31 10.5758C1136.01 17.6263 1145.95 27.4357 1153.14 40.0041C1160.48 52.5724 1164.16 66.7501 1164.16 82.5371C1164.16 98.3242 1160.48 112.578 1153.14 125.3C1145.8 137.868 1135.86 147.678 1123.31 154.728C1110.77 161.779 1096.93 165.304 1081.79 165.304ZM1081.79 129.438C1094.63 129.438 1104.88 125.147 1112.53 116.564C1120.33 107.98 1124.23 96.6382 1124.23 82.5371C1124.23 68.2828 1120.33 56.9407 1112.53 48.5107C1104.88 39.9274 1094.63 35.6358 1081.79 35.6358C1068.78 35.6358 1058.38 39.8508 1050.58 48.2808C1042.93 56.7108 1039.11 68.1295 1039.11 82.5371C1039.11 96.7915 1042.93 108.21 1050.58 116.793C1058.38 125.223 1068.78 129.438 1081.79 129.438Z" fill="url(#paint6_linear_271_420)"></path><path d="M1244.26 165.304C1232.48 165.304 1221.93 163.388 1212.6 159.556C1203.27 155.725 1195.77 150.054 1190.11 142.543C1184.61 135.033 1181.7 125.99 1181.39 115.414H1223.15C1223.77 121.392 1225.83 125.99 1229.35 129.209C1232.87 132.274 1237.46 133.807 1243.12 133.807C1248.93 133.807 1253.52 132.504 1256.88 129.898C1260.25 127.139 1261.93 123.384 1261.93 118.633C1261.93 114.648 1260.55 111.352 1257.8 108.747C1255.2 106.141 1251.91 103.995 1247.93 102.309C1244.11 100.623 1238.6 98.7074 1231.41 96.5615C1221.01 93.3428 1212.52 90.1241 1205.95 86.9054C1199.37 83.6867 1193.71 78.9352 1188.97 72.6511C1184.22 66.3669 1181.85 58.1668 1181.85 48.0509C1181.85 33.0302 1187.28 21.3048 1198.14 12.8749C1209 4.29162 1223.15 0 1240.59 0C1258.33 0 1272.64 4.29162 1283.5 12.8749C1294.36 21.3048 1300.17 33.1068 1300.94 48.2808H1258.49C1258.18 43.0695 1256.27 39.0078 1252.75 36.0956C1249.23 33.0302 1244.72 31.4974 1239.21 31.4974C1234.47 31.4974 1230.65 32.8003 1227.74 35.4059C1224.84 37.8582 1223.38 41.4601 1223.38 46.2116C1223.38 51.4229 1225.83 55.4846 1230.73 58.3967C1235.62 61.3089 1243.27 64.451 1253.67 67.823C1264.07 71.3483 1272.48 74.7202 1278.91 77.939C1285.49 81.1577 1291.15 85.8325 1295.89 91.9634C1300.63 98.0943 1303 105.988 1303 115.644C1303 124.84 1300.63 133.194 1295.89 140.704C1291.3 148.214 1284.57 154.192 1275.7 158.637C1266.82 163.082 1256.35 165.304 1244.26 165.304Z" fill="url(#paint7_linear_271_420)"></path></g><defs><linearGradient id="paint0_linear_271_420" x1="651.5" y1="0" x2="651.5" y2="226" gradientUnits="userSpaceOnUse"><stop stop-color="#05DDCD"></stop><stop offset="1" stop-color="#03776E" stop-opacity="0"></stop></linearGradient><linearGradient id="paint1_linear_271_420" x1="651.5" y1="0" x2="651.5" y2="226" gradientUnits="userSpaceOnUse"><stop stop-color="#05DDCD"></stop><stop offset="1" stop-color="#03776E" stop-opacity="0"></stop></linearGradient><linearGradient id="paint2_linear_271_420" x1="651.5" y1="0" x2="651.5" y2="226" gradientUnits="userSpaceOnUse"><stop stop-color="#05DDCD"></stop><stop offset="1" stop-color="#03776E" stop-opacity="0"></stop></linearGradient><linearGradient id="paint3_linear_271_420" x1="651.5" y1="0" x2="651.5" y2="226" gradientUnits="userSpaceOnUse"><stop stop-color="#05DDCD"></stop><stop offset="1" stop-color="#03776E" stop-opacity="0"></stop></linearGradient><linearGradient id="paint4_linear_271_420" x1="651.5" y1="0" x2="651.5" y2="226" gradientUnits="userSpaceOnUse"><stop stop-color="#05DDCD"></stop><stop offset="1" stop-color="#03776E" stop-opacity="0"></stop></linearGradient><linearGradient id="paint5_linear_271_420" x1="651.5" y1="0" x2="651.5" y2="226" gradientUnits="userSpaceOnUse"><stop stop-color="#05DDCD"></stop><stop offset="1" stop-color="#03776E" stop-opacity="0"></stop></linearGradient><linearGradient id="paint6_linear_271_420" x1="651.5" y1="0" x2="651.5" y2="226" gradientUnits="userSpaceOnUse"><stop stop-color="#05DDCD"></stop><stop offset="1" stop-color="#03776E" stop-opacity="0"></stop></linearGradient><linearGradient id="paint7_linear_271_420" x1="651.5" y1="0" x2="651.5" y2="226" gradientUnits="userSpaceOnUse"><stop stop-color="#05DDCD"></stop><stop offset="1" stop-color="#03776E" stop-opacity="0"></stop></linearGradient></defs></svg> 