<svg xmlns="http://www.w3.org/2000/svg" width="267" height="115" viewBox="0 0 267 115" fill="none"><path d="M31.62 18.12C31.62 21.72 30.44 24.62 28.08 26.82C25.72 29.02 22.18 30.12 17.46 30.12H9V48H4.8V6.06H17.46C22.14 6.06 25.66 7.16 28.02 9.36C30.42 11.56 31.62 14.48 31.62 18.12ZM17.46 26.52C24.02 26.52 27.3 23.72 27.3 18.12C27.3 15.32 26.52 13.2 24.96 11.76C23.4 10.32 20.9 9.6 17.46 9.6H9V26.52H17.46ZM68.3072 29.94C68.3072 31.38 68.2672 32.48 68.1872 33.24H41.0072C41.1272 35.72 41.7272 37.84 42.8072 39.6C43.8872 41.36 45.3072 42.7 47.0672 43.62C48.8272 44.5 50.7472 44.94 52.8272 44.94C55.5472 44.94 57.8272 44.28 59.6672 42.96C61.5472 41.64 62.7872 39.86 63.3872 37.62H67.8272C67.0272 40.82 65.3072 43.44 62.6672 45.48C60.0672 47.48 56.7872 48.48 52.8272 48.48C49.7472 48.48 46.9872 47.8 44.5472 46.44C42.1072 45.04 40.1872 43.08 38.7872 40.56C37.4272 38 36.7472 35.02 36.7472 31.62C36.7472 28.22 37.4272 25.24 38.7872 22.68C40.1472 20.12 42.0472 18.16 44.4872 16.8C46.9272 15.44 49.7072 14.76 52.8272 14.76C55.9472 14.76 58.6672 15.44 60.9872 16.8C63.3472 18.16 65.1472 20 66.3872 22.32C67.6672 24.6 68.3072 27.14 68.3072 29.94ZM64.0472 29.82C64.0872 27.38 63.5872 25.3 62.5472 23.58C61.5472 21.86 60.1672 20.56 58.4072 19.68C56.6472 18.8 54.7272 18.36 52.6472 18.36C49.5272 18.36 46.8672 19.36 44.6672 21.36C42.4672 23.36 41.2472 26.18 41.0072 29.82H64.0472ZM74.0714 31.56C74.0714 28.2 74.7514 25.26 76.1114 22.74C77.4714 20.18 79.3314 18.22 81.6914 16.86C84.0914 15.46 86.7914 14.76 89.7914 14.76C92.6714 14.76 95.2714 15.46 97.5914 16.86C99.9114 18.26 101.611 20.08 102.691 22.32V3.6H106.891V48H102.691V40.68C101.691 42.96 100.051 44.84 97.7714 46.32C95.4914 47.76 92.8114 48.48 89.7314 48.48C86.7314 48.48 84.0314 47.78 81.6314 46.38C79.2714 44.98 77.4114 43 76.0514 40.44C74.7314 37.88 74.0714 34.92 74.0714 31.56ZM102.691 31.62C102.691 28.98 102.151 26.66 101.071 24.66C99.9914 22.66 98.5114 21.12 96.6314 20.04C94.7914 18.96 92.7514 18.42 90.5114 18.42C88.1914 18.42 86.1114 18.94 84.2714 19.98C82.4314 21.02 80.9714 22.54 79.8914 24.54C78.8514 26.5 78.3314 28.84 78.3314 31.56C78.3314 34.24 78.8514 36.6 79.8914 38.64C80.9714 40.64 82.4314 42.18 84.2714 43.26C86.1114 44.3 88.1914 44.82 90.5114 44.82C92.7514 44.82 94.7914 44.28 96.6314 43.2C98.5114 42.12 99.9914 40.58 101.071 38.58C102.151 36.58 102.691 34.26 102.691 31.62ZM120.68 21.06C121.6 19.02 123 17.44 124.88 16.32C126.8 15.2 129.14 14.64 131.9 14.64V19.02H130.76C127.72 19.02 125.28 19.84 123.44 21.48C121.6 23.12 120.68 25.86 120.68 29.7V48H116.48V15.24H120.68V21.06ZM152.558 48.48C149.478 48.48 146.698 47.8 144.218 46.44C141.778 45.04 139.838 43.08 138.398 40.56C136.998 38 136.298 35.02 136.298 31.62C136.298 28.22 137.018 25.26 138.458 22.74C139.898 20.18 141.858 18.22 144.338 16.86C146.818 15.46 149.598 14.76 152.678 14.76C155.758 14.76 158.538 15.46 161.018 16.86C163.538 18.22 165.498 20.18 166.898 22.74C168.338 25.26 169.058 28.22 169.058 31.62C169.058 34.98 168.338 37.94 166.898 40.5C165.458 43.06 163.478 45.04 160.958 46.44C158.438 47.8 155.638 48.48 152.558 48.48ZM152.558 44.82C154.718 44.82 156.718 44.34 158.558 43.38C160.398 42.38 161.878 40.9 162.998 38.94C164.158 36.94 164.738 34.5 164.738 31.62C164.738 28.74 164.178 26.32 163.058 24.36C161.938 22.36 160.458 20.88 158.618 19.92C156.778 18.92 154.778 18.42 152.618 18.42C150.458 18.42 148.458 18.92 146.618 19.92C144.778 20.88 143.298 22.36 142.178 24.36C141.098 26.32 140.558 28.74 140.558 31.62C140.558 34.5 141.098 36.94 142.178 38.94C143.298 40.9 144.758 42.38 146.558 43.38C148.398 44.34 150.398 44.82 152.558 44.82Z" fill="white"></path><path d="M75.2 109L66.44 93.1H63.98V109H53.72V66.88H70.94C74.26 66.88 77.08 67.46 79.4 68.62C81.76 69.78 83.52 71.38 84.68 73.42C85.84 75.42 86.42 77.66 86.42 80.14C86.42 82.94 85.62 85.44 84.02 87.64C82.46 89.84 80.14 91.4 77.06 92.32L86.78 109H75.2ZM63.98 85.84H70.34C72.22 85.84 73.62 85.38 74.54 84.46C75.5 83.54 75.98 82.24 75.98 80.56C75.98 78.96 75.5 77.7 74.54 76.78C73.62 75.86 72.22 75.4 70.34 75.4H63.98V85.84ZM98.0206 72.04C96.2206 72.04 94.7406 71.52 93.5806 70.48C92.4606 69.4 91.9006 68.08 91.9006 66.52C91.9006 64.92 92.4606 63.6 93.5806 62.56C94.7406 61.48 96.2206 60.94 98.0206 60.94C99.7806 60.94 101.221 61.48 102.341 62.56C103.501 63.6 104.081 64.92 104.081 66.52C104.081 68.08 103.501 69.4 102.341 70.48C101.221 71.52 99.7806 72.04 98.0206 72.04ZM103.121 75.52V109H92.8606V75.52H103.121ZM120.816 80.26C121.776 78.7 123.156 77.44 124.956 76.48C126.756 75.52 128.816 75.04 131.136 75.04C133.896 75.04 136.396 75.74 138.636 77.14C140.876 78.54 142.636 80.54 143.916 83.14C145.236 85.74 145.896 88.76 145.896 92.2C145.896 95.64 145.236 98.68 143.916 101.32C142.636 103.92 140.876 105.94 138.636 107.38C136.396 108.78 133.896 109.48 131.136 109.48C128.776 109.48 126.716 109.02 124.956 108.1C123.196 107.14 121.816 105.88 120.816 104.32V109H110.556V64.6H120.816V80.26ZM135.456 92.2C135.456 89.64 134.736 87.64 133.296 86.2C131.896 84.72 130.156 83.98 128.076 83.98C126.036 83.98 124.296 84.72 122.856 86.2C121.456 87.68 120.756 89.7 120.756 92.26C120.756 94.82 121.456 96.84 122.856 98.32C124.296 99.8 126.036 100.54 128.076 100.54C130.116 100.54 131.856 99.8 133.296 98.32C134.736 96.8 135.456 94.76 135.456 92.2ZM182.839 91.72C182.839 92.68 182.779 93.68 182.659 94.72H159.439C159.599 96.8 160.259 98.4 161.419 99.52C162.619 100.6 164.079 101.14 165.799 101.14C168.359 101.14 170.139 100.06 171.139 97.9H182.059C181.499 100.1 180.479 102.08 178.999 103.84C177.559 105.6 175.739 106.98 173.539 107.98C171.339 108.98 168.879 109.48 166.159 109.48C162.879 109.48 159.959 108.78 157.399 107.38C154.839 105.98 152.839 103.98 151.399 101.38C149.959 98.78 149.239 95.74 149.239 92.26C149.239 88.78 149.939 85.74 151.339 83.14C152.779 80.54 154.779 78.54 157.339 77.14C159.899 75.74 162.839 75.04 166.159 75.04C169.399 75.04 172.279 75.72 174.799 77.08C177.319 78.44 179.279 80.38 180.679 82.9C182.119 85.42 182.839 88.36 182.839 91.72ZM172.339 89.02C172.339 87.26 171.739 85.86 170.539 84.82C169.339 83.78 167.839 83.26 166.039 83.26C164.319 83.26 162.859 83.76 161.659 84.76C160.499 85.76 159.779 87.18 159.499 89.02H172.339ZM193.411 72.04C191.611 72.04 190.131 71.52 188.971 70.48C187.851 69.4 187.291 68.08 187.291 66.52C187.291 64.92 187.851 63.6 188.971 62.56C190.131 61.48 191.611 60.94 193.411 60.94C195.171 60.94 196.611 61.48 197.731 62.56C198.891 63.6 199.471 64.92 199.471 66.52C199.471 68.08 198.891 69.4 197.731 70.48C196.611 71.52 195.171 72.04 193.411 72.04ZM198.511 75.52V109H188.251V75.52H198.511ZM216.207 81.1C217.407 79.26 218.907 77.82 220.707 76.78C222.507 75.7 224.507 75.16 226.707 75.16V86.02H223.887C221.327 86.02 219.407 86.58 218.127 87.7C216.847 88.78 216.207 90.7 216.207 93.46V109H205.947V75.52H216.207V81.1ZM246.851 109.48C243.571 109.48 240.611 108.78 237.971 107.38C235.371 105.98 233.311 103.98 231.791 101.38C230.311 98.78 229.571 95.74 229.571 92.26C229.571 88.82 230.331 85.8 231.851 83.2C233.371 80.56 235.451 78.54 238.091 77.14C240.731 75.74 243.691 75.04 246.971 75.04C250.251 75.04 253.211 75.74 255.851 77.14C258.491 78.54 260.571 80.56 262.091 83.2C263.611 85.8 264.371 88.82 264.371 92.26C264.371 95.7 263.591 98.74 262.031 101.38C260.511 103.98 258.411 105.98 255.731 107.38C253.091 108.78 250.131 109.48 246.851 109.48ZM246.851 100.6C248.811 100.6 250.471 99.88 251.831 98.44C253.231 97 253.931 94.94 253.931 92.26C253.931 89.58 253.251 87.52 251.891 86.08C250.571 84.64 248.931 83.92 246.971 83.92C244.971 83.92 243.311 84.64 241.991 86.08C240.671 87.48 240.011 89.54 240.011 92.26C240.011 94.94 240.651 97 241.931 98.44C243.251 99.88 244.891 100.6 246.851 100.6Z" fill="url(#paint0_linear_2049_225)"></path><defs><linearGradient id="paint0_linear_2049_225" x1="50" y1="88" x2="267" y2="88" gradientUnits="userSpaceOnUse"><stop stop-color="#05DDCD"></stop><stop offset="0.445" stop-color="white"></stop><stop offset="1" stop-color="#05DDCD"></stop></linearGradient></defs></svg>