<?xml version="1.0" encoding="UTF-8"?> <svg xmlns="http://www.w3.org/2000/svg" width="925" height="104" viewBox="0 0 925 104" fill="none"><g opacity="0.2"><path d="M77.5771 34.1363C77.5771 40.0185 76.2237 45.4186 73.517 50.3366C70.8102 55.1581 66.6534 59.0635 61.0466 62.0528C55.4398 65.0422 48.4796 66.5369 40.1661 66.5369H24.7957V102.987H0V1.44645H40.1661C48.2863 1.44645 55.1498 2.84469 60.7566 5.64116C66.3634 8.43764 70.5686 12.2948 73.372 17.2128C76.1754 22.1307 77.5771 27.7719 77.5771 34.1363ZM38.281 46.8651C43.0178 46.8651 46.5462 45.7561 48.8663 43.5382C51.1864 41.3204 52.3464 38.1864 52.3464 34.1363C52.3464 30.0862 51.1864 26.9522 48.8663 24.7344C46.5462 22.5165 43.0178 21.4075 38.281 21.4075H24.7957V46.8651H38.281Z" fill="url(#paint0_linear_271_431)"></path><path d="M142.397 102.987L121.227 64.6565H115.281V102.987H90.4858V1.44645H132.102C140.125 1.44645 146.941 2.84469 152.547 5.64116C158.251 8.43764 162.504 12.2948 165.308 17.2128C168.111 22.0343 169.513 27.4344 169.513 33.4131C169.513 40.1632 167.58 46.1901 163.713 51.4937C159.943 56.7974 154.336 60.5582 146.892 62.7761L170.383 102.987H142.397ZM115.281 47.1544H130.652C135.195 47.1544 138.579 46.0454 140.802 43.8275C143.122 41.6096 144.282 38.4757 144.282 34.4256C144.282 30.5684 143.122 27.5308 140.802 25.3129C138.579 23.095 135.195 21.9861 130.652 21.9861H115.281V47.1544Z" fill="url(#paint1_linear_271_431)"></path><path d="M233.219 104C223.649 104 214.852 101.782 206.829 97.3463C198.902 92.9105 192.57 86.739 187.833 78.8317C183.193 70.828 180.873 61.86 180.873 51.9277C180.873 41.9954 183.193 33.0756 187.833 25.1683C192.57 17.261 198.902 11.0895 206.829 6.65369C214.852 2.2179 223.649 0 233.219 0C242.79 0 251.538 2.2179 259.465 6.65369C267.489 11.0895 273.772 17.261 278.316 25.1683C282.956 33.0756 285.276 41.9954 285.276 51.9277C285.276 61.86 282.956 70.828 278.316 78.8317C273.676 86.739 267.392 92.9105 259.465 97.3463C251.538 101.782 242.79 104 233.219 104ZM233.219 81.4353C241.34 81.4353 247.817 78.7353 252.65 73.3352C257.58 67.9351 260.045 60.7993 260.045 51.9277C260.045 42.9597 257.58 35.8238 252.65 30.5202C247.817 25.1201 241.34 22.42 233.219 22.42C225.003 22.42 218.429 25.0719 213.499 30.3755C208.665 35.6792 206.249 42.8632 206.249 51.9277C206.249 60.8957 208.665 68.0797 213.499 73.4798C218.429 78.7835 225.003 81.4353 233.219 81.4353Z" fill="url(#paint2_linear_271_431)"></path><path d="M366.642 33.5577C364.806 30.1827 362.147 27.6273 358.667 25.8915C355.284 24.0593 351.272 23.1432 346.632 23.1432C338.608 23.1432 332.18 25.7951 327.346 31.0987C322.513 36.306 320.096 43.2972 320.096 52.0723C320.096 61.4261 322.609 68.7547 327.636 74.0584C332.76 79.2656 339.768 81.8693 348.662 81.8693C354.752 81.8693 359.875 80.3264 364.032 77.2406C368.286 74.1548 371.379 69.7191 373.312 63.9332H341.847V45.7079H395.788V68.7065C393.951 74.8781 390.81 80.6157 386.363 85.9193C382.013 91.223 376.454 95.5141 369.687 98.7928C362.921 102.071 355.284 103.711 346.777 103.711C336.723 103.711 327.733 101.541 319.806 97.2017C311.976 92.7659 305.837 86.6426 301.391 78.8317C297.04 71.0209 294.865 62.1011 294.865 52.0723C294.865 42.0436 297.04 33.1238 301.391 25.3129C305.837 17.4057 311.976 11.2823 319.806 6.94297C327.636 2.50718 336.578 0.289287 346.632 0.289287C358.812 0.289287 369.059 3.23041 377.373 9.11265C385.783 14.9949 391.341 23.1433 394.048 33.5577H366.642Z" fill="url(#paint3_linear_271_431)"></path><path d="M461.434 102.987L440.263 64.6565H434.318V102.987H409.523V1.44645H451.139C459.162 1.44645 465.977 2.84469 471.584 5.64116C477.288 8.43764 481.541 12.2948 484.345 17.2128C487.148 22.0343 488.55 27.4344 488.55 33.4131C488.55 40.1632 486.616 46.1901 482.75 51.4937C478.979 56.7974 473.373 60.5582 465.929 62.7761L489.42 102.987H461.434ZM434.318 47.1544H449.689C454.232 47.1544 457.616 46.0454 459.839 43.8275C462.159 41.6096 463.319 38.4757 463.319 34.4256C463.319 30.5684 462.159 27.5308 459.839 25.3129C457.616 23.095 454.232 21.9861 449.689 21.9861H434.318V47.1544Z" fill="url(#paint4_linear_271_431)"></path><path d="M567.482 85.0515H529.491L523.401 102.987H497.445L534.276 1.44645H562.987L599.818 102.987H573.572L567.482 85.0515ZM561.102 65.9583L548.486 28.7844L536.016 65.9583H561.102Z" fill="url(#paint5_linear_271_431)"></path><path d="M726.305 1.44645V102.987H701.509V42.0918L678.744 102.987H658.733L635.823 41.9471V102.987H611.027V1.44645H640.318L668.884 71.7441L697.159 1.44645H726.305Z" fill="url(#paint6_linear_271_431)"></path><path d="M807.503 85.0515H769.512L763.422 102.987H737.466L774.297 1.44645H803.008L839.839 102.987H813.593L807.503 85.0515ZM801.123 65.9583L788.507 28.7844L776.037 65.9583H801.123Z" fill="url(#paint7_linear_271_431)"></path><path d="M887.879 104C880.436 104 873.765 102.795 867.869 100.384C861.972 97.9731 857.235 94.4052 853.658 89.6801C850.178 84.955 848.341 79.2656 848.148 72.612H874.539C874.925 76.3727 876.23 79.2656 878.454 81.2907C880.677 83.2193 883.577 84.1836 887.154 84.1836C890.827 84.1836 893.728 83.3639 895.854 81.7246C897.981 79.9889 899.044 77.6263 899.044 74.637C899.044 72.1298 898.174 70.0566 896.434 68.4172C894.791 66.7779 892.713 65.4279 890.199 64.3672C887.782 63.3064 884.302 62.1011 879.759 60.751C873.185 58.726 867.82 56.701 863.663 54.6759C859.507 52.6509 855.93 49.6616 852.933 45.7079C849.936 41.7543 848.438 36.5953 848.438 30.2309C848.438 20.7807 851.87 13.4038 858.733 8.10014C865.597 2.70005 874.539 0 885.559 0C896.773 0 905.811 2.70005 912.675 8.10014C919.538 13.4038 923.212 20.8289 923.695 30.3755H896.869C896.676 27.0969 895.468 24.5415 893.244 22.7093C891.021 20.7807 888.169 19.8164 884.689 19.8164C881.692 19.8164 879.275 20.6361 877.439 22.2754C875.602 23.8183 874.684 26.0844 874.684 29.0737C874.684 32.3523 876.23 34.9077 879.324 36.7399C882.417 38.5721 887.251 40.5489 893.824 42.6704C900.398 44.8883 905.714 47.0097 909.775 49.0348C913.931 51.0598 917.508 54.0009 920.505 57.8581C923.502 61.7153 925 66.6815 925 72.7566C925 78.5424 923.502 83.7979 920.505 88.5229C917.605 93.248 913.351 97.0088 907.745 99.8053C902.138 102.602 895.516 104 887.879 104Z" fill="url(#paint8_linear_271_431)"></path></g><defs><linearGradient id="paint0_linear_271_431" x1="462.5" y1="0" x2="463" y2="146.5" gradientUnits="userSpaceOnUse"><stop stop-color="#05DDCD"></stop><stop offset="1" stop-color="#03776E" stop-opacity="0"></stop></linearGradient><linearGradient id="paint1_linear_271_431" x1="462.5" y1="0" x2="463" y2="146.5" gradientUnits="userSpaceOnUse"><stop stop-color="#05DDCD"></stop><stop offset="1" stop-color="#03776E" stop-opacity="0"></stop></linearGradient><linearGradient id="paint2_linear_271_431" x1="462.5" y1="0" x2="463" y2="146.5" gradientUnits="userSpaceOnUse"><stop stop-color="#05DDCD"></stop><stop offset="1" stop-color="#03776E" stop-opacity="0"></stop></linearGradient><linearGradient id="paint3_linear_271_431" x1="462.5" y1="0" x2="463" y2="146.5" gradientUnits="userSpaceOnUse"><stop stop-color="#05DDCD"></stop><stop offset="1" stop-color="#03776E" stop-opacity="0"></stop></linearGradient><linearGradient id="paint4_linear_271_431" x1="462.5" y1="0" x2="463" y2="146.5" gradientUnits="userSpaceOnUse"><stop stop-color="#05DDCD"></stop><stop offset="1" stop-color="#03776E" stop-opacity="0"></stop></linearGradient><linearGradient id="paint5_linear_271_431" x1="462.5" y1="0" x2="463" y2="146.5" gradientUnits="userSpaceOnUse"><stop stop-color="#05DDCD"></stop><stop offset="1" stop-color="#03776E" stop-opacity="0"></stop></linearGradient><linearGradient id="paint6_linear_271_431" x1="462.5" y1="0" x2="463" y2="146.5" gradientUnits="userSpaceOnUse"><stop stop-color="#05DDCD"></stop><stop offset="1" stop-color="#03776E" stop-opacity="0"></stop></linearGradient><linearGradient id="paint7_linear_271_431" x1="462.5" y1="0" x2="463" y2="146.5" gradientUnits="userSpaceOnUse"><stop stop-color="#05DDCD"></stop><stop offset="1" stop-color="#03776E" stop-opacity="0"></stop></linearGradient><linearGradient id="paint8_linear_271_431" x1="462.5" y1="0" x2="463" y2="146.5" gradientUnits="userSpaceOnUse"><stop stop-color="#05DDCD"></stop><stop offset="1" stop-color="#03776E" stop-opacity="0"></stop></linearGradient></defs></svg> 