<svg xmlns="http://www.w3.org/2000/svg" width="615" height="190" viewBox="0 0 615 190" fill="none"><g opacity="0.1"><path d="M147.002 0V37.0798H96.6474V190H50.3541V37.0798H0V0H147.002Z" fill="url(#paint0_linear_271_307)"></path><path d="M216.528 0V190H170.235V0H216.528Z" fill="url(#paint1_linear_271_307)"></path><path d="M465.3 0V190H419.006V76.0541L376.503 190H339.144L296.37 75.7835V190H250.076V0H304.762L358.094 131.538L410.885 0H465.3Z" fill="url(#paint2_linear_271_307)"></path><path d="M544.883 37.0798V75.5128H606.878V111.239H544.883V152.92H615V190H498.59V0H615V37.0798H544.883Z" fill="url(#paint3_linear_271_307)"></path></g><defs><linearGradient id="paint0_linear_271_307" x1="307.5" y1="0" x2="307.5" y2="190" gradientUnits="userSpaceOnUse"><stop stop-color="#05DDCD"></stop><stop offset="1" stop-color="#03776E" stop-opacity="0"></stop></linearGradient><linearGradient id="paint1_linear_271_307" x1="307.5" y1="0" x2="307.5" y2="190" gradientUnits="userSpaceOnUse"><stop stop-color="#05DDCD"></stop><stop offset="1" stop-color="#03776E" stop-opacity="0"></stop></linearGradient><linearGradient id="paint2_linear_271_307" x1="307.5" y1="0" x2="307.5" y2="190" gradientUnits="userSpaceOnUse"><stop stop-color="#05DDCD"></stop><stop offset="1" stop-color="#03776E" stop-opacity="0"></stop></linearGradient><linearGradient id="paint3_linear_271_307" x1="307.5" y1="0" x2="307.5" y2="190" gradientUnits="userSpaceOnUse"><stop stop-color="#05DDCD"></stop><stop offset="1" stop-color="#03776E" stop-opacity="0"></stop></linearGradient></defs></svg>