<svg xmlns="http://www.w3.org/2000/svg" width="47" height="47" viewBox="0 0 47 47" fill=""><path d="M43.8647 6.27032C43.0335 6.27062 42.2364 6.60088 41.6489 7.18842L21.1563 27.6782L16.1392 17.8058C14.9156 16.5824 12.9312 16.5818 11.7068 17.8045C10.4825 19.0272 10.4819 21.0102 11.7055 22.2336L18.9395 34.3225C20.1637 35.5463 22.149 35.5463 23.3732 34.3225L46.0826 11.6162C47.3063 10.3928 47.3057 8.40969 46.0813 7.18696C45.4933 6.59978 44.696 6.27005 43.8647 6.27032ZM23.2615 0.00134482C17.2595 0.0654304 11.3365 2.41884 6.87711 6.87894C-0.633401 14.3907 -2.16767 26.0488 3.14259 35.2479C8.45284 44.4471 19.3191 48.9495 29.5803 46.1996C39.8414 43.4497 46.9991 34.1186 46.9991 23.4973C46.999 21.7676 45.5958 20.3654 43.8649 20.3654C42.1339 20.3653 40.7306 21.7675 40.7305 23.4973C40.7305 31.3164 35.5044 38.1268 27.9565 40.1496C20.4085 42.1724 12.4808 38.889 8.57241 32.1182C4.66398 25.3475 5.78488 16.8338 11.3116 11.3062C16.8382 5.77859 25.3447 4.65875 32.1127 8.56687C33.6114 9.43229 35.5285 8.91975 36.3945 7.42209C37.2605 5.92451 36.7477 4.00898 35.249 3.14354C31.5118 0.985506 27.3681 -0.0425032 23.2615 0.00134482Z" fill=""></path></svg>